<svg width="127" height="38" viewBox="0 0 127 38" fill="none" xmlns="http://www.w3.org/2000/svg">
<path fill-rule="evenodd" clip-rule="evenodd" d="M5 0C2.23858 0 0 2.23858 0 5V25C0 27.7614 2.23857 30 5 30H55L63.7179 38L72 30H122C124.761 30 127 27.7614 127 25V5C127 2.23858 124.761 0 122 0H5Z" fill="currentColor"/>
<path d="M16.338 19.748C16.338 19.94 15.768 20.036 14.628 20.036C13.476 20.036 12.9 19.946 12.9 19.766V8.03C12.9 7.61 13.122 7.4 13.566 7.4H17.004C20.16 7.4 21.738 8.63 21.738 11.09C21.738 11.834 21.594 12.512 21.306 13.124C21.018 13.724 20.61 14.204 20.082 14.564L22.35 18.344C22.254 18.632 21.942 18.962 21.414 19.334C20.694 19.85 20.1 20.108 19.632 20.108C19.164 20.108 18.816 19.94 18.588 19.604L16.896 15.662H16.338V19.748ZM16.338 10.586V13.286H16.428C17.568 13.286 18.138 12.812 18.138 11.864C18.138 11.432 18.024 11.114 17.796 10.91C17.58 10.694 17.22 10.586 16.716 10.586H16.338ZM30.2312 19.514C29.4752 19.958 28.5032 20.18 27.3152 20.18C26.1272 20.18 25.1252 19.778 24.3092 18.974C23.4932 18.158 23.0852 17.036 23.0852 15.608C23.0852 14.168 23.4752 13.01 24.2552 12.134C25.0472 11.258 26.0432 10.82 27.2432 10.82C28.4432 10.82 29.3672 11.126 30.0152 11.738C30.6752 12.35 31.0052 13.094 31.0052 13.97C31.0052 15.914 29.8892 16.886 27.6572 16.886H26.4152C26.4152 17.246 26.5112 17.498 26.7032 17.642C26.9072 17.774 27.2012 17.84 27.5852 17.84C28.4252 17.84 29.2232 17.648 29.9792 17.264C29.9912 17.252 30.0452 17.336 30.1412 17.516C30.4292 18.032 30.5732 18.47 30.5732 18.83C30.5732 19.178 30.4592 19.406 30.2312 19.514ZM27.9812 14.312C27.9812 13.808 27.7352 13.556 27.2432 13.556C27.0152 13.556 26.8172 13.628 26.6492 13.772C26.4932 13.904 26.4152 14.102 26.4152 14.366V14.924H27.3872C27.7832 14.924 27.9812 14.72 27.9812 14.312ZM35.1331 15.536C35.1331 16.712 35.5771 17.3 36.4651 17.3C37.0411 17.3 37.5211 17.186 37.9051 16.958C38.0851 16.958 38.2291 17.27 38.3371 17.894C38.4571 18.506 38.5171 18.926 38.5171 19.154C38.5171 19.37 38.4871 19.514 38.4271 19.586C37.7911 19.982 36.9211 20.18 35.8171 20.18C34.7131 20.18 33.7711 19.772 32.9911 18.956C32.2231 18.128 31.8391 17.006 31.8391 15.59C31.8391 14.162 32.2171 13.01 32.9731 12.134C33.7411 11.258 34.7551 10.82 36.0151 10.82C37.2871 10.82 38.1691 11.126 38.6611 11.738C38.7691 11.87 38.8231 12.068 38.8231 12.332C38.8231 12.584 38.7751 12.896 38.6791 13.268C38.4631 14.036 38.1811 14.48 37.8331 14.6C37.7851 14.612 37.7131 14.618 37.6171 14.618C37.5331 14.618 37.4251 14.546 37.2931 14.402C36.8251 13.934 36.4471 13.7 36.1591 13.7C35.8831 13.7 35.6431 13.844 35.4391 14.132C35.2351 14.42 35.1331 14.888 35.1331 15.536ZM47.28 16.58H40.17C39.954 16.58 39.798 16.406 39.702 16.058C39.654 15.878 39.63 15.704 39.63 15.536C39.63 15.368 39.654 15.194 39.702 15.014C39.798 14.666 39.954 14.492 40.17 14.492H47.28C47.496 14.492 47.652 14.666 47.748 15.014C47.796 15.194 47.82 15.368 47.82 15.536C47.82 15.704 47.796 15.878 47.748 16.058C47.652 16.406 47.496 16.58 47.28 16.58ZM52.561 19.892C52.561 19.988 52.009 20.036 50.905 20.036C49.813 20.036 49.267 19.994 49.267 19.91V11.072C49.267 10.988 49.813 10.946 50.905 10.946C52.009 10.946 52.561 10.982 52.561 11.054V19.892ZM52.561 9.992C52.561 10.076 52.009 10.118 50.905 10.118C49.813 10.118 49.267 10.082 49.267 10.01V7.418C49.267 7.298 49.813 7.238 50.905 7.238C52.009 7.238 52.561 7.274 52.561 7.346V9.992ZM58.3289 19.892C58.3289 20.036 57.8249 20.108 56.8169 20.108C55.6169 20.06 55.0169 19.982 55.0169 19.874V13.502H54.0989C53.8589 13.502 53.7389 13.088 53.7389 12.26C53.7389 12.044 53.7569 11.78 53.7929 11.468C53.8409 11.156 53.9309 11 54.0629 11H55.0169V9.416C55.0169 9.176 55.5209 9.056 56.5289 9.056C57.5489 9.056 58.0589 9.152 58.0589 9.344V10.496L58.0769 11H59.6069C59.8109 11 59.9129 11.42 59.9129 12.26C59.9129 13.1 59.8109 13.52 59.6069 13.52H58.3289V19.892ZM68.2859 16.58H61.1759C60.9599 16.58 60.8039 16.406 60.7079 16.058C60.6599 15.878 60.6359 15.704 60.6359 15.536C60.6359 15.368 60.6599 15.194 60.7079 15.014C60.8039 14.666 60.9599 14.492 61.1759 14.492H68.2859C68.5019 14.492 68.6579 14.666 68.7539 15.014C68.8019 15.194 68.8259 15.368 68.8259 15.536C68.8259 15.704 68.8019 15.878 68.7539 16.058C68.6579 16.406 68.5019 16.58 68.2859 16.58ZM73.8009 19.748C73.8009 19.94 73.2309 20.036 72.0909 20.036C70.9389 20.036 70.3629 19.946 70.3629 19.766V8.03C70.3629 7.61 70.5849 7.4 71.0289 7.4H74.4669C77.6229 7.4 79.2009 8.63 79.2009 11.09C79.2009 11.834 79.0569 12.512 78.7689 13.124C78.4809 13.724 78.0729 14.204 77.5449 14.564L79.8129 18.344C79.7169 18.632 79.4049 18.962 78.8769 19.334C78.1569 19.85 77.5629 20.108 77.0949 20.108C76.6269 20.108 76.2789 19.94 76.0509 19.604L74.3589 15.662H73.8009V19.748ZM73.8009 10.586V13.286H73.8909C75.0309 13.286 75.6009 12.812 75.6009 11.864C75.6009 11.432 75.4869 11.114 75.2589 10.91C75.0429 10.694 74.6829 10.586 74.1789 10.586H73.8009ZM82.0241 13.466C81.6881 12.866 81.5201 12.38 81.5201 12.008C81.5201 11.624 81.6221 11.378 81.8261 11.27C82.5101 10.97 83.4461 10.82 84.6341 10.82C85.8341 10.82 86.6801 11.102 87.1721 11.666C87.6641 12.218 87.9101 13.04 87.9101 14.132V16.976H88.5221C88.7261 16.976 88.8821 17.096 88.9901 17.336C89.1101 17.576 89.1701 17.906 89.1701 18.326C89.1701 18.746 89.0621 19.16 88.8461 19.568C88.6421 19.976 88.3601 20.18 88.0001 20.18C87.3521 20.18 86.8301 20.006 86.4341 19.658C86.2541 19.514 86.1161 19.34 86.0201 19.136C85.4681 19.832 84.6101 20.18 83.4461 20.18C82.5701 20.18 81.8321 19.868 81.2321 19.244C80.6321 18.62 80.3321 17.882 80.3321 17.03C80.3321 15.074 81.5021 14.096 83.8421 14.096H84.8321V13.916C84.8321 13.604 84.7781 13.406 84.6701 13.322C84.5741 13.226 84.3401 13.178 83.9681 13.178C83.5121 13.178 82.8641 13.274 82.0241 13.466ZM83.4641 16.778C83.4641 17.042 83.5361 17.246 83.6801 17.39C83.8241 17.522 84.0041 17.588 84.2201 17.588C84.4481 17.588 84.6521 17.498 84.8321 17.318V15.932H84.3281C83.7521 15.932 83.4641 16.214 83.4641 16.778ZM93.4649 19.856C93.4649 19.964 92.8529 20.018 91.6289 20.018C90.6689 20.006 90.1889 19.958 90.1889 19.874V7.616C90.1889 7.436 90.7709 7.346 91.9349 7.346C92.9549 7.382 93.4649 7.442 93.4649 7.526V19.856ZM98.9632 23.276C98.9632 23.36 98.4472 23.402 97.4152 23.402C96.3952 23.402 95.8852 23.36 95.8852 23.276V14.006H95.2732C94.9852 14.006 94.7872 13.742 94.6792 13.214C94.6432 13.046 94.6252 12.83 94.6252 12.566C94.6252 12.302 94.7092 11.99 94.8772 11.63C95.1172 11.102 95.5012 10.838 96.0292 10.838C96.3772 10.838 96.6952 10.922 96.9832 11.09C97.2832 11.246 97.4872 11.396 97.5952 11.54C97.7152 11.672 97.7752 11.75 97.7752 11.774C98.5792 11.15 99.4492 10.838 100.385 10.838C101.321 10.838 102.125 11.204 102.797 11.936C103.469 12.656 103.805 13.778 103.805 15.302C103.805 16.814 103.469 17.99 102.797 18.83C102.125 19.658 101.273 20.072 100.241 20.072C99.7732 20.072 99.3472 20.048 98.9632 20V23.276ZM99.7012 13.988C99.4972 13.988 99.2992 14.054 99.1072 14.186V17.372C99.3112 17.396 99.4732 17.408 99.5932 17.408C99.7252 17.408 99.8272 17.408 99.8992 17.408C100.391 17.36 100.637 16.73 100.637 15.518C100.637 14.498 100.325 13.988 99.7012 13.988ZM108.084 19.874C108.084 19.982 107.58 20.036 106.572 20.036C105.576 20.036 105.078 19.952 105.078 19.784V7.454C105.078 7.37 105.264 7.31 105.636 7.274C106.008 7.238 106.32 7.22 106.572 7.22C107.58 7.22 108.084 7.328 108.084 7.544V11.144C108.756 10.94 109.266 10.838 109.614 10.838C110.526 10.838 111.246 11.084 111.774 11.576C112.302 12.056 112.566 12.956 112.566 14.276V19.856C112.566 19.964 112.098 20.018 111.162 20.018C110.106 19.982 109.578 19.922 109.578 19.838V14.546C109.578 13.958 109.386 13.664 109.002 13.664C108.738 13.664 108.432 13.79 108.084 14.042V19.874Z" fill="white"/>
</svg>
