<svg width="56" height="38" viewBox="0 0 56 38" fill="none" xmlns="http://www.w3.org/2000/svg">
<path fill-rule="evenodd" clip-rule="evenodd" d="M5 0C2.23858 0 0 2.23858 0 5V25C0 27.7614 2.23858 30 5 30H21L28.1795 38L35 30H51C53.7614 30 56 27.7614 56 25V5C56 2.23858 53.7614 0 51 0H5Z" fill="currentColor"/>
<path d="M16.338 19.748C16.338 19.94 15.768 20.036 14.628 20.036C13.476 20.036 12.9 19.946 12.9 19.766V8.03C12.9 7.61 13.122 7.4 13.566 7.4H17.004C20.16 7.4 21.738 8.63 21.738 11.09C21.738 11.834 21.594 12.512 21.306 13.124C21.018 13.724 20.61 14.204 20.082 14.564L22.35 18.344C22.254 18.632 21.942 18.962 21.414 19.334C20.694 19.85 20.1 20.108 19.632 20.108C19.164 20.108 18.816 19.94 18.588 19.604L16.896 15.662H16.338V19.748ZM16.338 10.586V13.286H16.428C17.568 13.286 18.138 12.812 18.138 11.864C18.138 11.432 18.024 11.114 17.796 10.91C17.58 10.694 17.22 10.586 16.716 10.586H16.338ZM30.1138 19.892C30.1138 19.988 29.5618 20.036 28.4578 20.036C27.3658 20.036 26.8198 19.994 26.8198 19.91V11.072C26.8198 10.988 27.3658 10.946 28.4578 10.946C29.5618 10.946 30.1138 10.982 30.1138 11.054V19.892ZM30.1138 9.992C30.1138 10.076 29.5618 10.118 28.4578 10.118C27.3658 10.118 26.8198 10.082 26.8198 10.01V7.418C26.8198 7.298 27.3658 7.238 28.4578 7.238C29.5618 7.238 30.1138 7.274 30.1138 7.346V9.992ZM38.6622 19.748C38.6622 19.94 38.0922 20.036 36.9522 20.036C35.8002 20.036 35.2242 19.946 35.2242 19.766V8.03C35.2242 7.61 35.4462 7.4 35.8902 7.4H39.3282C42.4842 7.4 44.0622 8.63 44.0622 11.09C44.0622 11.834 43.9182 12.512 43.6302 13.124C43.3422 13.724 42.9342 14.204 42.4062 14.564L44.6742 18.344C44.5782 18.632 44.2662 18.962 43.7382 19.334C43.0182 19.85 42.4242 20.108 41.9562 20.108C41.4882 20.108 41.1402 19.94 40.9122 19.604L39.2202 15.662H38.6622V19.748ZM38.6622 10.586V13.286H38.7522C39.8922 13.286 40.4622 12.812 40.4622 11.864C40.4622 11.432 40.3482 11.114 40.1202 10.91C39.9042 10.694 39.5442 10.586 39.0402 10.586H38.6622Z" fill="white"/>
</svg>
