<svg viewBox="0 0 11 12" fill="none" xmlns="http://www.w3.org/2000/svg">
  <path d="M10.7963 10.7697L8.69189 8.59074C9.47683 7.68011 9.96402 6.47382 9.96402 5.15695C9.96402 2.31348 7.72854 0 4.98225 0C2.23537 0 0 2.3136 0 5.15695C0 8.0003 2.23548 10.3139 4.98177 10.3139C5.95668 10.3139 6.86055 10.0187 7.62129 9.52637L9.80886 11.7909C9.93984 11.9264 10.1182 12 10.2965 12C10.4749 12 10.6533 11.926 10.7842 11.7909C11.0699 11.5081 11.0699 11.0524 10.7963 10.7696L10.7963 10.7697ZM1.39092 5.15683C1.39092 3.1134 2.9961 1.43983 4.98166 1.43983C6.96768 1.43983 8.56086 3.11352 8.56086 5.15683C8.56086 7.20014 6.95567 8.87383 4.98213 8.87383C3.00811 8.87383 1.39092 7.2122 1.39092 5.15683Z" fill="currentColor"/>
</svg>
